<?xml version="1.0" encoding="utf-8"?>
<!-- Generator: Adobe Illustrator 27.2.0, SVG Export Plug-In . SVG Version: 6.00 Build 0)  -->
<svg version="1.1" id="Layer_1" xmlns="http://www.w3.org/2000/svg" xmlns:xlink="http://www.w3.org/1999/xlink" x="0px" y="0px"
	 viewBox="0 0 100 73" style="enable-background:new 0 0 100 73;" xml:space="preserve">
<style type="text/css">
	.st0{fill:#FFFFFF;}
	.st1{enable-background:new    ;}
</style>
<g>
	<g>
		<path class="st0" d="M33.3,19.4c0,0,1.5-0.7,2.7-4.9c0,0,0.7-3.1,0.6-4.3c-0.1-1.1-0.1-6.5-3.5-6.5c-0.2,0-0.3,0-0.5,0
			c0,0-0.3-0.1-0.7-0.1c-0.9,0-2.3,0.5-3.5,3.4c-1.7,4.4,0.3,11.7,0.3,11.7s0.2,1,0.4,1c0.1,0,0.1-0.2,0.1-1c0-2.2,0.6-6.9,0.6-6.9
			s-0.2-2.7,0.3-3.2s2.1-1.5,2-2.5c0,0,2.5,1.6,2.3,5.6C34.4,11.7,34.5,15.2,33.3,19.4L33.3,19.4z"/>
		<path class="st0" d="M27.1,12.1L26.9,13l-0.5,3.2l-0.2-0.1L24,15.5c0,0-0.1,0-0.1,0.1v1.9c0-0.1,0.1-0.1,0.2,0c0,0,0.1,0,0.2,0.1
			s0.2,0.2,0.3,0.2l0.1,0.1c0-0.2,0-0.3,0.1-0.4l-0.1-0.1c-0.1-0.1-0.3-0.5-0.2-0.7c0-0.1,0.3-0.4,0.7-0.4c0.2,0,0.4,0,1.1,0.6
			l0.2,0.2c0.4,0.3,0.7,0.6,0.8,0.7c0.4,0.1,1.1,0.9,1.1,0.8c-0.1-0.2-1.1-3.4-1.1-7.1C27.1,11.8,27.2,11.6,27.1,12.1L27.1,12.1z"/>
		<path class="st0" d="M23.9,18.9L23.9,18.9v1.4c0.2,0.2,0.6,0.5,1.2,0.6c0,0,0.4,0.2,0.8,0.6s1.6,0.6,1.6,0.6s0.3,0,0.5,0.2l0,0
			c0,0,0.1,0.1,0.2,0.1l0,0l1-1.8l-0.1-0.1c0,0-1.5-2.2-2-2.2c0,0-0.4-0.4-0.9-0.8s-1-0.8-1.1-0.8c-0.4,0-0.3,0.3-0.1,0.5
			c0,0,0.1,0.1,0.2,0.2c0.1,0,0.1,0.1,0.2,0.2c0.3,0.4,0.8,0.9,0.8,0.9s0.1,0.1,0.1,0.3V19c0,0,0,0.1-0.1,0.1c0,0-0.5-0.2-1.1-0.6
			c0,0,0,0-0.1,0c-0.3-0.2-0.6-0.4-0.9-0.6l0,0v0.7l0,0c0.5,0.4,1.3,1.1,2.1,1.4C26,20,24.6,19.6,23.9,18.9L23.9,18.9z"/>
		<path class="st0" d="M45.9,5.3c-0.5,0.7-0.8,1.2-0.8,1.2S44.5,7.3,46,8.1c0,0,0.8,4.3,0.5,5.4c-0.1,0.4-0.1,1.1,0,1.8
			c-2.5-0.9-5-1.4-6.6-0.5c0.2,0.7,0.2,1,0.2,1l2,0.6c4.9,2.4,2.8,5.3,1.8,6.3c0.8-0.1,2.4-0.3,5.2-0.3v-8.7c0-1-0.1-2-0.3-2.9
			C48.3,8.8,47.3,6.9,45.9,5.3L45.9,5.3z"/>
		<path class="st0" d="M40,16.4c-0.1,0.1-0.2-0.3-0.3-0.3c0-0.2,0-0.6-0.1-1.1c-0.3-1.2-0.9-2.8-2.4-3c-0.2,1.3-0.6,2.9-0.7,3
			c-1.2,4.2-2.9,4.8-2.9,4.8L32.7,20l0.1-0.6c0.8-3,1.1-5.4,1.1-6.6c-0.2,0.2-0.1,0.1-0.3,0.3l0,0c0,0-1.7,2.7-1.6,4.5
			c0,0-0.9-2.8-1.1-4.3c-0.4-0.3-0.4-0.3-0.6-0.7c-0.1,1.1-0.3,4-0.4,5.9c0.3,1.5,0.9,3.3,3.7,3.5l-0.2,0.5c0,0-1.5,0.8-3.7-1.3
			l-0.8,1.7c1.6,1.1,5.3,3.6,6.8,1.8c1.3-1.6,1.3-1.9,1.3-2c0.7,0,4.4,0.3,5.7,0.7c0,0,0.2-0.1,0.4-0.4c0.1-0.1,0.3-0.3,0.4-0.5l0,0
			l0.1-0.1l0,0l0.1-0.1l0,0l0.1-0.1l0,0l0.1-0.1l0,0c0,0,0-0.1,0.1-0.1l0,0c0,0,0-0.1,0.1-0.1l0,0c0,0,0-0.1,0.1-0.2l0,0
			c0-0.1,0-0.1,0.1-0.2l0,0c0-0.1,0-0.1,0-0.2l0,0c0-0.1,0-0.1,0-0.2l0,0c0-0.1,0-0.1,0-0.2l0,0c0-0.1,0-0.1,0-0.2l0,0
			c0-0.1,0-0.1,0-0.2l0,0c0-0.1,0-0.1,0-0.2l0,0c0-0.1,0-0.1,0-0.2l0,0c0-0.1,0-0.1,0-0.2l0,0c0-0.1,0-0.1-0.1-0.2l0,0
			c0-0.1-0.1-0.1-0.1-0.2l0,0c0-0.1-0.1-0.1-0.1-0.2l0,0c0-0.1-0.1-0.1-0.1-0.2l0,0c0-0.1-0.1-0.1-0.2-0.2l0,0
			c-0.1-0.1-0.1-0.1-0.2-0.2l0,0c-0.1-0.1-0.1-0.1-0.2-0.2l0,0C43.2,18,43.1,18,43,17.9l0,0c-0.1-0.1-0.2-0.1-0.2-0.2l0,0
			c-0.1-0.1-0.2-0.1-0.3-0.2l0,0c-0.1-0.1-0.2-0.1-0.3-0.2l0,0l-0.1-0.1l0,0L40,16.4L40,16.4z"/>
		<path class="st0" d="M25.9,15.1c0,0,0.4-2.1,0.6-3c0-0.1,0.4-1.4,0.8-1.5c0-1.4,0.1-2.5,0.6-3.7c1.1-2.9,3.1-4,3.9-4
			c0.4,0,1,0.3,1,0.3c0.2,0,0.5-0.1,0.7-0.1c3.4,0,3.7,5.1,3.8,6.3c0,0.3,0.1,1.1,0.1,1.6c0.1,0,0.1,0.2,0,0.2c1.3,0.3,2.8,3,2.8,3
			c1.6-0.9,3.6-0.6,6.1,0.3c-0.1-0.7,0-0.4,0-0.9c0.2-1.1-0.5-5.3-0.5-5.3c-1.5-0.8-1-1.9-1-1.9s0.5-1,1-1.6
			c-0.1-0.1-0.2-0.2-0.3-0.3l-0.1-0.1c-0.4,0-0.4-0.1-0.5-0.2l-0.1-0.1c-0.1-0.1-0.2-0.2-0.3-0.3l-0.1-0.1c-0.1-0.1-0.2-0.1-0.3-0.2
			c0,0-0.1,0-0.1-0.1c-0.1-0.1-0.2-0.2-0.3-0.2l-0.1-0.1c-0.1-0.1-0.2-0.2-0.3-0.2c0,0-0.1,0-0.1-0.1c-0.1-0.1-0.2-0.1-0.3-0.2
			c0,0-0.1,0-0.1-0.1c-0.1-0.1-0.3-0.1-0.4-0.2c0,0-0.1,0-0.1-0.1c-0.1-0.1-0.2-0.1-0.4-0.2c0,0,0,0-0.1,0c-0.2,0.1-0.3,0-0.5,0
			h-0.1c-0.1-0.1-0.3-0.1-0.4-0.2h-0.1c-0.1,0-0.3-0.1-0.4-0.1h-0.1c-0.1,0-0.3-0.1-0.4-0.1h-0.1c-0.1,0-0.3-0.1-0.4-0.1l0,0
			c-0.2,0-0.3-0.1-0.5-0.1h-0.1c-0.2,0-0.3,0-0.5-0.1c0,0,0,0-0.1,0s-0.3,0-0.4,0h-0.1c-0.2,0-0.3,0-0.5,0H37c-0.2,0-0.3,0-0.5,0
			c-6,0-11,4.3-12.3,10c-0.2,0.9-0.3,1.9-0.3,2.9V15C23.9,14.7,25.8,15.1,25.9,15.1L25.9,15.1z"/>
		<path class="st0" d="M37.2,11.3L37.2,11.3L37.2,11.3z"/>
		<path class="st0" d="M43.8,23.5l-0.7,0.2c0,0.1-0.7,0.1-0.7,0.1c-1.3-0.4-4.2-0.3-4.9-0.3c0.1,0.1-0.2,0.1-1.5,1.7
			c-1.5,1.8-5.7-0.4-7.3-1.5l-0.4-0.5L27.6,23c0,0-1.1-0.2-1.5-0.7c-0.4-0.4-1-0.6-1-0.6c-0.6-0.2-0.9-0.3-1.2-0.6v5.6h25.2v-3.5
			C46.3,23.2,44.6,23.4,43.8,23.5z"/>
		<path class="st0" d="M76.1,40.1V28.5H50.9v6.8c1-0.1,2.5-0.3,2.8-0.3c0.1,0,0.3-0.1,0.4-0.1c0.4-0.1,0.9-0.3,1.3-0.3
			c0.3,0,0.7,0.1,1,0.3l0,0l0,0l0,0l0.1,0.1c0,0,0.1,0,0.1,0.1c0.1,0.1,0.1,0.1,0.2,0.2c0.6-0.1,1.3-0.2,1.9-0.3
			c0.4-0.1,0.8-0.1,1.1-0.2c0.3,0,0.5-0.1,0.8-0.1c0.4,0,0.8,0.1,1.2,0.2c0.5,0.2,1.3,0.4,1.8,0.8c0.5,0.4,0.6,1,0.6,1.5
			c0,0.1,0,0.2,0.1,0.3c0,0.1,0.1,0.3,0.3,0.4c0.1,0.1,0.1,0.2,0.2,0.3c0.3-0.1,0.7-0.3,1.1-0.4c0.5-0.2,0.9-0.3,1-0.4
			c0.7-0.3,1.5-0.4,2.4-0.4c0.1,0,0.2,0,0.3,0c1.1,0,2.3,0.8,2.6,1.9l0,0c0,0,0,0.1,0.1,0.1c0.1,0.1,0.1,0.3,0.2,0.6l0,0l0,0
			c0,0,0.1,0,0.1,0.1c0.9,0,2.9,0.4,3.6,0.7L76.1,40.1L76.1,40.1z"/>
		<path class="st0" d="M71.7,39.1c-0.3-0.8-1.2-1.5-2-1.5s-1.7,0.1-2.5,0.3c-0.3,0.1-0.7,0.3-1,0.4c0,0.1,0.1,0.1,0.3,0.1
			c0.3,0,0.4,0,0.6-0.1c0.4-0.2,0.9-0.1,1.3-0.1c0.2,0,0.6,0,0.7,0.1s0.1,0.2,0.2,0.3s0.2,0.1,0.3,0.2c0.1,0.1,0.1,0.4,0.2,0.6
			c0.1,0.2,0.2,0.4,0.3,0.6c0.1,0.4-0.2,0.8,0,1.2c0.2,0.5,0.3,0.5,0.1,1c-0.2,0.3-0.3,0.6-0.6,0.8v0.2c0.1,0,0.3,0,0.4,0
			c0.5,0,0.9-0.4,1.3-0.7c0.2-0.1,0.5-0.3,0.6-0.5c0.1-0.1,0.1-0.2,0.1-0.3c0,0,0,0,0-0.1l0,0c0-0.1,0-0.1,0-0.2l0,0l0,0l0,0
			c0-0.1,0.1-0.2,0.1-0.2s0,0,0-0.1c0.1-0.1,0.1-0.2,0.2-0.4c0,0,0,0,0-0.1v-0.1c0-0.1,0-0.2-0.1-0.3S72,40.1,71.9,40
			c0-0.1,0-0.2,0-0.3C71.8,39.4,71.7,39.2,71.7,39.1L71.7,39.1z"/>
		<path class="st0" d="M67.1,46.3c0.7,0.1,1.6,0.2,2.2,0c0.2,0,0.3-0.1,0.4-0.1s0.1,0,0.2,0c0.4,0,0.8,0.3,2.1,0.4
			c0.3,0,0.6-0.1,0.8-0.1c0.3,0,0.5,0,0.8-0.1c0.1-0.1,0.1-0.1,0.1-0.2l0,0l0,0l0,0c0.1,0,0.3,0,0.4-0.1l0,0l0,0c0,0,0,0,0-0.1
			c0,0,0,0,0-0.1s0-0.1,0-0.2c0,0,0,0-0.1-0.1l-0.1-0.1c0,0,0,0-0.1,0c0,0,0,0-0.1-0.1c0,0-0.1,0-0.1-0.1c0,0,0,0-0.1,0
			c-0.2-0.1-0.5-0.2-0.8-0.3l0,0c-0.3-0.1-0.6-0.1-0.8-0.2c-0.4-0.2-0.8-0.5-1.3-0.6c-0.7-0.1-1.2,0.1-1.9,0.2c-0.1,0-0.2,0-0.3,0
			c-0.1,0-0.1,0-0.2,0c-0.2,0-0.4,0.1-0.6,0.1c-0.1,0-0.1,0-0.2,0c0,0,0,0-0.1,0c0,0,0,0,0,0.1l0,0c-0.1,0.4-0.3,0.7-0.4,1.1
			C67.3,46,67.2,46.2,67.1,46.3L67.1,46.3L67.1,46.3z"/>
		<path class="st0" d="M75.3,40.8c-0.6-0.2-1.5-0.4-2.3-0.4c-0.3,0.3-0.3,0.6-0.4,1.1c0,0.5-0.4,0.8-0.7,1.1
			c-0.4,0.3-0.9,0.4-1.4,0.6c-0.4,0.2-2.3,0-2.9,0.1l0,0l0,0c0,0,0,0-0.1,0l0,0l0,0l0,0c-0.1,0-0.1,0-0.2,0h-0.1h-0.1l0,0l0,0l0,0
			c0,0,0,0-0.1,0l0,0h-0.1l0,0l0,0l0,0l0,0l0,0c0.2,0,0.3,0.1,0.4,0.1c0,0,0.1,0,0.1,0.1c0.1,0.1,0.2,0.2,0.3,0.4h0.1
			c0.1,0,0.1,0,0.2,0c0.2,0,0.4-0.1,0.6-0.1c0.1,0,0.1,0,0.2,0s0.2,0,0.4,0c0.2,0,0.4,0,0.6-0.1c0.3,0,0.5-0.1,0.8-0.1
			c0.2,0,0.4,0,0.6,0.1c0.4,0.1,0.7,0.3,1,0.4c0.1,0.1,0.2,0.1,0.4,0.2c0.1,0.1,0.4,0.1,0.6,0.2h0.1c0.3,0.1,0.7,0.2,1,0.4l0.1,0.1
			h0.1l0.1,0.1c0,0,0,0,0.1,0.1l0.1,0.1l0.1,0.1c0.1,0.1,0.1,0.3,0.1,0.5c0,0.1,0,0.1,0,0.2c0,0.1,0,0.1-0.1,0.2c0,0,0,0.1-0.1,0.1
			c-0.1,0.2-0.3,0.2-0.5,0.3c-0.1,0.1-0.2,0.2-0.3,0.3c-0.2,0.1-0.5,0.2-0.7,0.2c-0.1,0-0.2,0-0.3,0h-0.1c-0.2,0-0.4,0-0.6,0.1h-0.1
			H72c-0.8-0.1-1.3-0.2-1.7-0.3c-0.2,0-0.3-0.1-0.4-0.1h-0.1h-0.1c-0.1,0-0.2,0-0.3,0.1c-0.3,0.1-0.6,0.1-1,0.1
			c-0.5,0-1-0.1-1.5-0.1l0,0c0,0.1,0,0.2,0,0.3c-0.1,0.4-0.1,0.9-0.3,1.3l-0.2,0.7l-0.6-0.4c-0.3-0.2-0.7-0.3-1.2-0.3
			c-0.3,0-0.6-0.1-0.9-0.1l-0.4-0.1L59,45.7l4.4,1.8c0-0.4,0.1-0.8,0.3-1.2c0.1-0.3,0.2-0.6,0.4-0.9c0.1-0.1,0.1-0.2,0.2-0.3
			c0.3-0.5,0.6-1,0.6-1.4v-0.2c-0.5-0.2-1-0.5-1.5-0.8l0,0c-0.2-0.1-0.4-0.2-0.6-0.3c0,0-0.1,0-0.2-0.1C62,42.2,60.8,42,61.1,41
			c0.2-0.6,0.6-1.3,1-1.9c-0.2,0.5-0.3,1.1-0.3,1.6c0,0.4,0.2,0.6,0.6,0.8l0,0c0-0.2-0.1-0.4,0-0.6c0-0.1,0-0.1,0-0.2
			c0.1-0.2,0.2-0.3,0.4-0.5c0.3-0.2,0.6-0.3,0.8-0.4l0,0l0,0c0.2-0.3,0.6-0.5,1-0.7c0.1-0.6-0.6-1.2-0.7-1.7
			c-0.1-0.5-0.1-1.1-0.5-1.5c-0.4-0.3-1-0.5-1.5-0.7c-0.6-0.2-1.2-0.2-1.7-0.1c-1,0.2-2,0.3-2.9,0.5v0.1c0.1,0.8-0.5,1.8-1,2.5
			c-0.1,0.2-0.3,0.4-0.3,0.6c-0.1,0.1-0.1,0.2-0.2,0.4c-0.1,0.2-0.2,0.4-0.3,0.7c-0.1,0.2-0.2,0.5-0.2,0.7c0,0-0.2,0.6-0.3,0.9
			c-0.1,0.3-0.2,0.6-0.3,0.8c-0.5,1.4-0.8,2.7-0.8,3.8l0,0l0,0l0,0c0,0.5,0.1,1,0.2,1.4c0.1,0.3,0.2,0.6,0.3,0.9l0,0
			c0.1,0.2,0.2,0.5,0.2,0.7l0,0v0.1L54.5,50c2.3,2.5,5.5,4,9.2,4c3.6,0,7.6-2.2,9.9-4.8c0.7-0.9,1.3-2,1.8-3.1
			c0.6-1.4,0.9-3,0.9-4.6c0-0.2,0-0.3,0-0.5C75.8,41,75.6,40.9,75.3,40.8L75.3,40.8z"/>
		<path class="st0" d="M64.6,45.7c-0.4,0.7-0.6,1.3-0.6,2c0.8,0.2,1.6,0.1,2.2,0.6c0.2-0.6,0.2-1.3,0.4-1.9l0,0l0,0v-0.1
			c0.2-0.5,0.6-1.1,0.7-1.6v-0.1l0,0c0-0.2-0.1-0.3-0.2-0.3c0,0,0,0-0.1,0s-0.2-0.1-0.4-0.1l0,0c-0.1,0-0.1,0-0.2,0
			c-0.3-0.1-0.7-0.1-1-0.3C65.4,44.4,64.9,45.1,64.6,45.7L64.6,45.7z M65.6,47.2c0,0.2-0.2,0.4-0.4,0.4s-0.4-0.2-0.4-0.4
			s0.2-0.4,0.4-0.4S65.6,47,65.6,47.2z"/>
		<path class="st0" d="M53.8,48.8c-0.1-0.3-0.3-0.6-0.3-0.9c-0.1-0.5-0.2-1-0.2-1.6l0,0c0-1.3,0.3-2.7,0.8-4
			c0.1-0.3,0.2-0.5,0.3-0.8s0.2-0.5,0.3-0.8s0.2-0.5,0.3-0.8s0.2-0.5,0.3-0.8c0.1-0.1,0.1-0.3,0.2-0.4c0.3-0.6,1.4-1.9,1.3-2.8
			c0-0.2-0.1-0.3-0.2-0.5l0,0c0,0-0.1-0.1-0.2-0.1l0,0c-0.8-0.4-1.5,0-2.3,0.2c-0.5,0.1-2.6,0.3-3,0.4v5.8c0,1.6,0.4,3.1,1,4.5
			c0.4,1.1,1,2.2,1.8,3.1c0.1,0.1,0.2,0.2,0.3,0.3c0-0.1,0-0.2,0-0.3l0,0C53.9,49.2,53.9,49,53.8,48.8L53.8,48.8z"/>
		<path class="st0" d="M76.1,13.8c0-1-0.1-1.9-0.3-2.9C74.5,5.1,69.4,1,63.5,1s-11,4.1-12.3,10c-0.2,0.9-0.3,1.9-0.3,2.9v12.9h25.2
			L76.1,13.8L76.1,13.8z M73.1,11.7C72,6.4,67.6,2.8,62.4,2.5c0.2,0,0.4,0,0.6,0c5.5,0,10.1,3.8,11.3,9.2
			C74.5,12.5,73.3,12.5,73.1,11.7L73.1,11.7z"/>
		<path class="st0" d="M23.9,41.4c0,1,0.1,1.9,0.3,2.9c1.3,5.9,6.4,10,12.3,10s11-4.1,12.3-10c0.2-0.9,0.3-1.9,0.3-2.9V28.5H23.9
			V41.4L23.9,41.4L23.9,41.4z M26.9,43.6c1.2,5.2,5.5,8.9,10.7,9.2c-0.2,0-0.4,0-0.6,0c-5.5,0-10.1-3.8-11.3-9.2
			C25.5,42.7,26.7,42.7,26.9,43.6z"/>
	</g>
	<g>
		<g class="st1">
			<path class="st0" d="M8.5,66.2c-0.4,0-0.6,0.1-0.7,0.2c-0.2,0.2-0.3,0.5-0.3,1.1v3.2c0,0.2-0.3,0.5-0.8,0.8
				c-0.4,0.3-1,0.5-1.6,0.5c-1.5,0-2.6-0.6-3.3-1.8c-0.7-1-1-2.4-1-4.1c0-1.5,0.4-2.7,1.1-3.8c0.8-1.2,1.7-1.8,2.9-1.8
				c0.5,0,0.9,0.1,1.4,0.3C6.6,61,6.9,61.1,7,61.1c0.2,0,0.4-0.2,0.5-0.6h0.3l0.1,3.4H7.6c-0.3-0.9-0.5-1.6-0.8-2
				c-0.4-0.7-1-1-1.8-1S3.6,61.3,3,62c-0.8,1-1.2,2.5-1.2,4.4c0,1.6,0.3,2.8,1,3.8c0.7,0.9,1.5,1.4,2.4,1.4c0.4,0,0.8-0.1,1.1-0.3
				c0.3-0.2,0.4-0.5,0.4-0.8v-2.7c0-0.6-0.1-1.1-0.3-1.2c-0.1-0.1-0.4-0.2-0.9-0.2v-0.3h2.9v0.1H8.5z"/>
			<path class="st0" d="M14.1,71.8h-3.4v-0.3c0.5-0.1,0.8-0.2,1-0.4c0.2-0.2,0.3-0.5,0.3-1v-7.6c0-0.8-0.3-1.2-0.9-1.2
				c-0.1,0-0.2,0-0.4,0V61c0.5-0.1,1.2-0.4,2.1-0.7v9.8c0,0.5,0.1,0.8,0.3,1s0.5,0.3,1,0.3C14.1,71.4,14.1,71.8,14.1,71.8z"/>
			<path class="st0" d="M23.2,68c0,1.1-0.3,2-0.8,2.7c-0.6,0.8-1.4,1.2-2.4,1.2c-0.9,0-1.7-0.4-2.3-1.1c-0.6-0.8-0.9-1.7-0.9-2.8
				c0-1.1,0.3-2,0.8-2.7c0.6-0.8,1.4-1.2,2.3-1.2c1,0,1.7,0.3,2.4,1C23,65.8,23.2,66.8,23.2,68z M22.3,68.4c0-1.1-0.2-2-0.7-2.8
				c-0.4-0.7-1-1.1-1.7-1.1c-0.6,0-1,0.2-1.4,0.6c-0.4,0.5-0.7,1.1-0.7,2c0,1.1,0.1,2,0.5,2.8c0.4,1,1.1,1.5,1.9,1.5
				c0.5,0,0.9-0.2,1.3-0.5C22.1,70.4,22.3,69.6,22.3,68.4z"/>
			<path class="st0" d="M31.1,67.8c0,1-0.3,1.8-0.8,2.6c-0.7,1-1.6,1.5-2.8,1.5c-0.4,0-0.9-0.1-1.3-0.3c-0.5-0.2-0.8-0.4-0.8-0.7
				v-8.6c0-0.7-0.3-1-0.9-1c-0.1,0-0.2,0-0.2,0V61c0.4-0.1,1.1-0.3,1.9-0.7v5.5l0.1-0.2c0.2-0.3,0.4-0.6,0.7-0.9
				c0.5-0.4,0.9-0.6,1.4-0.6c0.8,0,1.5,0.4,2,1.2C30.9,66,31.1,66.8,31.1,67.8z M30.1,68.4c0-2.2-0.7-3.3-2.1-3.3
				c-0.3,0-0.7,0.2-1.1,0.5c-0.4,0.4-0.6,0.8-0.6,1.3v3.6c0,0.3,0.2,0.5,0.7,0.8c0.4,0.2,0.7,0.3,1,0.3c0.8,0,1.4-0.4,1.8-1.1
				C29.9,69.8,30.1,69.1,30.1,68.4z"/>
			<path class="st0" d="M38.4,69.3c-0.2,0.6-0.5,1.1-0.9,1.6c-0.6,0.7-1.3,1.1-2.2,1.1c-0.8,0-1.5-0.3-2-1s-0.7-1.6-0.7-2.7
				c0-1.4,0.4-2.4,1.1-3.2c0.6-0.6,1.2-0.9,1.9-0.9s1.2,0.2,1.7,0.6c0.5,0.5,0.8,1.2,0.9,2.2h-4.7c0,2.7,0.8,4,2.2,4
				c1.1,0,2-0.6,2.6-1.8L38.4,69.3z M37.1,66.5c-0.2-1.3-0.7-1.9-1.8-1.9c-0.9,0-1.5,0.6-1.9,1.9H37.1z"/>
			<path class="st0" d="M46.9,63.4h-0.3c-0.1-0.9-0.4-1.5-0.7-1.8c-0.3-0.2-0.8-0.3-1.6-0.3h-0.8v8.5c0,0.6,0.1,1,0.3,1.3
				c0.2,0.2,0.6,0.4,1.1,0.4v0.3h-3.7v-0.3c0.6-0.1,1-0.2,1.2-0.5c0.2-0.2,0.2-0.7,0.2-1.4v-8.3h-0.8c-0.8,0-1.3,0.1-1.5,0.4
				c-0.3,0.3-0.5,0.8-0.7,1.8h-0.3l0.1-2.7h7.3L46.9,63.4z"/>
			<path class="st0" d="M53.6,65c0,0.4-0.1,0.5-0.4,0.5c-0.2,0-0.4-0.1-0.6-0.2c-0.2-0.1-0.4-0.2-0.5-0.2c-0.2,0-0.4,0.3-0.8,0.7
				c-0.3,0.5-0.5,0.8-0.5,1.1v3.2c0,0.6,0.1,0.9,0.4,1.2c0.2,0.2,0.5,0.2,1,0.3v0.3h-3.4v-0.3c0.5-0.1,0.8-0.2,0.9-0.3
				c0.2-0.2,0.3-0.5,0.3-1v-3.8c0-0.8-0.2-1.2-0.7-1.2c-0.2,0-0.3,0-0.4,0V65c0.4-0.2,1.1-0.4,2-0.9V66l0.2-0.3
				c0.4-0.6,0.8-1.1,1-1.3c0.3-0.3,0.6-0.4,0.9-0.4C53.3,64.2,53.6,64.4,53.6,65z"/>
			<path class="st0" d="M61.7,68c0,1.1-0.3,2-0.8,2.7c-0.6,0.8-1.4,1.2-2.4,1.2c-0.9,0-1.7-0.4-2.3-1.1c-0.6-0.8-0.9-1.7-0.9-2.8
				c0-1.1,0.3-2,0.8-2.7c0.6-0.8,1.4-1.2,2.3-1.2c1,0,1.7,0.3,2.4,1C61.4,65.8,61.7,66.8,61.7,68z M60.8,68.4c0-1.1-0.2-2-0.7-2.8
				c-0.4-0.7-1-1.1-1.7-1.1c-0.6,0-1,0.2-1.4,0.6c-0.4,0.5-0.7,1.1-0.7,2c0,1.1,0.2,2,0.5,2.8c0.4,1,1.1,1.5,1.9,1.5
				c0.5,0,0.9-0.2,1.3-0.5C60.5,70.4,60.8,69.6,60.8,68.4z"/>
			<path class="st0" d="M68.2,70.7c-0.2,0.4-0.4,0.6-0.7,0.9c-0.3,0.2-0.6,0.3-0.9,0.3c-0.4,0-0.7-0.1-0.9-0.4
				c-0.2-0.3-0.3-0.9-0.3-1.6v-5.2h-1c0-0.2,0-0.3,0-0.3c0.1,0,0.3-0.2,0.7-0.4c0.4-0.4,0.7-1,1-1.8h0.2v2.1H68v0.5h-1.7v4.8
				c0,0.6,0,1,0.1,1.2c0.1,0.3,0.4,0.4,0.8,0.4s0.7-0.2,0.9-0.5L68.2,70.7z"/>
			<path class="st0" d="M75.9,70.7c-0.2,0.4-0.4,0.6-0.7,0.9c-0.3,0.2-0.6,0.3-0.9,0.3c-0.4,0-0.7-0.1-0.9-0.4
				c-0.2-0.3-0.3-0.9-0.3-1.6v-5.2h-1c0-0.2,0-0.3,0-0.3c0.1,0,0.3-0.2,0.7-0.4c0.4-0.4,0.7-1,1-1.8H74v2.1h1.7v0.5H74v4.8
				c0,0.6,0,1,0.1,1.2c0.1,0.3,0.4,0.4,0.8,0.4s0.7-0.2,0.9-0.5L75.9,70.7z"/>
			<path class="st0" d="M84.6,69.3c-0.2,0.6-0.5,1.1-0.9,1.6c-0.6,0.7-1.3,1.1-2.2,1.1c-0.8,0-1.5-0.3-2-1s-0.7-1.6-0.7-2.7
				c0-1.4,0.4-2.4,1.1-3.2c0.6-0.6,1.2-0.9,1.9-0.9c0.7,0,1.2,0.2,1.7,0.6c0.5,0.5,0.8,1.2,0.9,2.2h-4.7c0,2.7,0.8,4,2.2,4
				c1.1,0,2-0.6,2.6-1.8L84.6,69.3z M83.3,66.5c-0.2-1.3-0.7-1.9-1.8-1.9c-0.9,0-1.5,0.6-1.9,1.9H83.3z"/>
			<path class="st0" d="M92,65c0,0.4-0.1,0.5-0.4,0.5c-0.2,0-0.4-0.1-0.6-0.2s-0.4-0.2-0.5-0.2c-0.2,0-0.4,0.3-0.8,0.7
				c-0.3,0.5-0.5,0.8-0.5,1.1v3.2c0,0.6,0.1,0.9,0.4,1.2c0.2,0.2,0.5,0.2,1,0.3v0.3h-3.4v-0.3c0.5-0.1,0.8-0.2,0.9-0.3
				c0.2-0.2,0.3-0.5,0.3-1v-3.8c0-0.8-0.2-1.2-0.7-1.2c-0.2,0-0.3,0-0.4,0V65c0.4-0.2,1.1-0.4,2-0.9V66l0.2-0.3
				c0.4-0.6,0.8-1.1,1-1.3c0.3-0.3,0.6-0.4,0.9-0.4C91.8,64.2,92,64.4,92,65z"/>
			<path class="st0" d="M99.1,69.8c0,0.7-0.2,1.2-0.7,1.6c-0.4,0.3-0.9,0.5-1.4,0.5c-0.2,0-0.6-0.1-1-0.2s-0.6-0.2-0.8-0.2
				S95,71.6,95,71.8h-0.2v-2.5H95c0.2,0.7,0.3,1.2,0.5,1.4c0.3,0.5,0.8,0.8,1.4,0.8c1,0,1.4-0.4,1.4-1.2c0-0.5-0.3-0.9-0.9-1.3
				l-0.9-0.6c-0.7-0.5-1.1-0.8-1.2-0.9c-0.4-0.4-0.6-0.8-0.6-1.4c0-0.5,0.2-1,0.5-1.4c0.4-0.4,0.9-0.7,1.5-0.7
				c0.2,0,0.5,0.1,0.8,0.2s0.4,0.2,0.5,0.2s0.2-0.1,0.2-0.2h0.2l0.1,2.2h-0.3c-0.1-0.8-0.3-1.4-0.6-1.6c-0.2-0.2-0.5-0.3-0.9-0.3
				s-0.8,0.1-1,0.4c-0.2,0.2-0.3,0.5-0.3,0.8c0,0.5,0.2,0.9,0.8,1.2l1.6,1.1c0.5,0.3,0.8,0.5,0.9,0.7C99,69,99.1,69.4,99.1,69.8z"/>
		</g>
	</g>
</g>
</svg>
