<?xml version="1.0" encoding="utf-8"?>
<!-- Generator: Adobe Illustrator 27.2.0, SVG Export Plug-In . SVG Version: 6.00 Build 0)  -->
<svg version="1.1" id="Layer_1" xmlns="http://www.w3.org/2000/svg" xmlns:xlink="http://www.w3.org/1999/xlink" x="0px" y="0px"
	 viewBox="0 0 368.7 100" style="enable-background:new 0 0 368.7 100;" xml:space="preserve">
<style type="text/css">
	.st0{enable-background:new    ;}
</style>
<g>
	<g>
		<path d="M17.7,34.4c0,0,2.7-1.4,5-9.2c0,0,1.3-5.9,1.2-8.1C23.8,15,23.7,5,17.4,5c-0.3,0-0.6,0-0.9,0.1c0,0-0.5-0.2-1.4-0.2
			c-1.6,0-4.3,0.9-6.5,6.3c-3.3,8.2,0.6,22,0.6,22s0.4,1.8,0.8,1.8c0.1,0,0.3-0.5,0.3-1.8c0-4,1-12.9,1-12.9s-0.4-5,0.5-5.9
			c0.9-0.9,4-2.9,3.7-4.6c0,0,4.7,2.9,4.3,10.5C19.8,20.1,19.8,26.6,17.7,34.4L17.7,34.4z"/>
		<path d="M5.9,20.9l-0.4,1.8l-1,6.1c-0.1-0.1-0.3-0.2-0.4-0.2l-3.9-1.3c-0.1,0-0.1,0.1-0.1,0.2v3.5c0-0.2,0.2-0.1,0.3-0.1
			c0,0.1,0.1,0.1,0.2,0.2c0.2,0.2,0.4,0.3,0.6,0.5c0,0,0.1,0.3,0.1,0.2c0-0.3,0-0.5,0.2-0.7l-0.2-0.1C1,30.6,0.7,30,0.8,29.6
			c0.2-0.2,0.7-0.7,1.3-0.7c0.3,0,0.8,0,2.1,1.1c0.1,0.1,0.3,0.4,0.4,0.4c0.7,0.6,1.3,1.1,1.5,1.3c0.7,0.2,2.1,1.7,2.1,1.5
			c-0.1-0.4-2.1-6.5-2-13.4C5.9,20.2,6.1,20,5.9,20.9L5.9,20.9z"/>
		<path d="M0,33.5L0,33.5v2.7c0.4,0.4,1.2,0.9,2.3,1.2c0,0,0.7,0.3,1.5,1.1c0.8,0.8,2.9,1.1,2.9,1.1s0.5,0.1,0.9,0.3
			c0,0,0.1,0,0.1,0.1c0.1,0.1,0.2,0.2,0.3,0.2l0,0l1.9-3.4l-0.2-0.2c0,0-2.9-4.2-3.8-4.2c0,0-0.8-0.7-1.7-1.5
			c-0.9-0.7-1.8-1.5-2.2-1.5c-0.7,0-0.5,0.5-0.2,0.9c0.1,0.1,0.2,0.2,0.3,0.3c0.1,0,0.2,0.2,0.3,0.3C3.1,31.7,4,32.7,4,32.7
			s0.2,0.2,0.2,0.5v0.3c0,0.1-0.1,0.2-0.2,0.2c0,0-1-0.4-2.1-1c0,0-0.1,0-0.1-0.1c-0.6-0.3-1.2-0.7-1.8-1.1l0,0v1.4l0,0
			c0.9,0.8,2.5,2,3.9,2.7C3.9,35.6,1.2,34.8,0,33.5L0,33.5z"/>
		<path d="M41.2,8.1c-0.9,1.3-1.6,2.3-1.6,2.3s-1.1,1.5,1.8,3.1c0,0,1.5,8.1,1,10.2c-0.2,0.8-0.1,2.1,0,3.4c-4.6-1.7-9.5-2.6-12.4-1
			c0.3,1.3,0.4,1.9,0.4,1.9l3.7,1.2c9.2,4.6,5.2,10,3.3,11.8c1.5-0.3,4.5-0.6,9.8-0.5V24.2c0-1.9-0.2-3.7-0.6-5.4
			C45.7,14.7,43.8,11,41.2,8.1L41.2,8.1z"/>
		<path d="M30,28.9c-0.2,0.2-0.4-0.5-0.7-0.6c0-0.4,0-1.2-0.2-2c-0.5-2.2-1.7-5.2-4.6-5.7c-0.4,2.4-1.2,5.5-1.2,5.7
			c-2.3,7.9-5.4,9-5.5,9l-1.5,0.3l0.1-1.2c1.5-5.6,2-10.1,2.1-12.4c-0.4,0.4-0.2,0.2-0.5,0.5l0,0c0,0-3.2,5.1-2.9,8.4
			c0,0-1.7-5.2-2.1-8c-0.7-0.5-0.8-0.6-1.2-1.3c-0.2,2-0.6,7.5-0.8,11c0.5,2.9,1.8,6.2,7,6.6L17.8,40c0,0-2.9,1.4-6.9-2.4l-1.6,3.3
			c3,2.1,10,6.8,12.8,3.3c2.4-2.9,2.5-3.6,2.4-3.7c1.3,0.1,8.2,0.6,10.8,1.4c0,0,0.3-0.2,0.8-0.7c0.2-0.2,0.5-0.6,0.8-0.9l0,0
			c0.1-0.1,0.1-0.2,0.2-0.2l0,0c0.1-0.1,0.1-0.2,0.2-0.2l0,0c0.1-0.1,0.1-0.2,0.2-0.2l0,0c0-0.1,0.1-0.2,0.2-0.3l0,0
			c0-0.1,0.1-0.2,0.1-0.3l0,0c0-0.1,0.1-0.2,0.1-0.3l0,0c0-0.1,0.1-0.2,0.1-0.3l0,0c0-0.1,0.1-0.2,0.1-0.3l0,0
			c0-0.1,0.1-0.2,0.1-0.3l0,0c0-0.1,0-0.2,0.1-0.3l0,0c0-0.1,0-0.2,0-0.3l0,0c0-0.1,0-0.2,0-0.3l0,0c0-0.1,0-0.2,0-0.3l0,0
			c0-0.1,0-0.2,0-0.3l0,0c0-0.1,0-0.2-0.1-0.3l0,0c0-0.1-0.1-0.2-0.1-0.3l0,0c0-0.1-0.1-0.2-0.1-0.4l0,0c0-0.1-0.1-0.2-0.2-0.4l0,0
			c-0.1-0.1-0.1-0.3-0.2-0.4l0,0c-0.1-0.1-0.2-0.3-0.2-0.4l0,0c-0.1-0.1-0.2-0.2-0.3-0.4l0,0c-0.1-0.1-0.2-0.2-0.3-0.4l0,0
			c-0.1-0.1-0.2-0.2-0.4-0.4c0,0,0,0-0.1-0.1c-0.1-0.1-0.3-0.2-0.4-0.4c0,0,0,0-0.1-0.1c-0.2-0.1-0.3-0.2-0.5-0.4c0,0,0,0-0.1-0.1
			c-0.2-0.1-0.3-0.2-0.5-0.4c0,0,0,0-0.1,0c-0.2-0.1-0.4-0.2-0.6-0.4c0,0,0,0-0.1,0s-0.2-0.1-0.3-0.2l0,0L30,28.9L30,28.9z"/>
		<path d="M3.6,26.5c0,0,0.7-3.9,1.1-5.7c0-0.2,0.8-2.7,1.5-2.9c0-2.7,0.2-4.6,1.1-6.9c2.2-5.4,5.7-7.4,7.4-7.4
			c0.8,0,1.8,0.6,1.8,0.6c0.3-0.1,1-0.2,1.2-0.2c6.3,0,7,9.6,7.1,11.8c0,0.6,0.2,2,0.1,2.9c0.3,0.1,0.2,0.3,0.1,0.4
			c2.4,0.5,5.2,5.6,5.2,5.6c2.9-1.7,6.8-1.1,11.4,0.6c-0.2-1.3-0.1-0.8,0.1-1.6c0.5-2-1-9.9-1-9.9c-2.9-1.6-1.9-3.6-1.9-3.6
			s0.9-1.8,1.8-3.1C40.3,7,40.1,6.8,40,6.6c-0.1-0.1-0.1-0.1-0.2-0.2c-0.2-0.1-0.3-0.3-0.5-0.4c-0.1-0.1-0.1-0.1-0.2-0.2
			c-0.2-0.2-0.4-0.3-0.6-0.5c-0.1-0.1-0.2-0.1-0.2-0.2c-0.2,0-0.4-0.1-0.5-0.3c-0.1,0-0.1-0.1-0.2-0.1c-0.2-0.2-0.4-0.3-0.6-0.5
			c-0.1-0.1-0.2-0.1-0.2-0.2c-0.2-0.2-0.4-0.3-0.7-0.4c-0.1,0-0.1-0.1-0.2-0.1c-0.2-0.1-0.4-0.2-0.6-0.3c-0.1,0-0.1-0.1-0.2-0.1
			c-0.2-0.1-0.5-0.3-0.7-0.4c-0.1,0-0.1-0.1-0.2-0.1c-0.2-0.1-0.5-0.2-0.7-0.3h-0.1c-0.2-0.2-0.5-0.3-0.8-0.5
			c-0.1,0-0.1-0.1-0.2-0.1c-0.3-0.1-0.5-0.2-0.8-0.3c0,0-0.1,0-0.2-0.1c-0.2-0.1-0.5-0.2-0.7-0.2c-0.1,0-0.1,0-0.2-0.1
			c-0.3-0.1-0.5-0.2-0.8-0.2c-0.1,0-0.1,0-0.2-0.1c-0.3-0.1-0.5-0.1-0.8-0.2l0,0c-0.3-0.1-0.6-0.1-0.9-0.2c-0.1,0-0.1,0-0.2,0
			c-0.3-0.1-0.6-0.1-0.9-0.1h-0.1c-0.3,0-0.5-0.1-0.8-0.1c0,0-0.1,0-0.2,0C25.3,0.1,25,0,24.8,0c-0.1,0-0.1,0-0.2,0
			c-0.3,0-0.6,0-0.9,0C12.4,0,3,8,0.6,18.8C0.2,20.5,0,22.3,0,24.2v1.6C0,25.6,3.5,26.4,3.6,26.5L3.6,26.5z"/>
		<path d="M24.9,19.3L24.9,19.3L24.9,19.3z"/>
		<path d="M37.3,42.2l-1.4,0.4c-0.1,0.1-1.4,0.2-1.4,0.2c-2.5-0.8-7.9-0.5-9.1-0.6c0.2,0.1-0.4,0.2-2.8,3.2
			C19.9,48.8,12,44.7,9,42.6l-0.7-0.9L7,41.3c0,0-2-0.5-2.8-1.2c-0.8-0.9-2-1.2-2-1.2c-1.1-0.3-1.8-0.7-2.2-1.1v10.5h47.2v-6.5
			C41.9,41.7,38.8,42,37.3,42.2L37.3,42.2z"/>
		<path d="M97.7,73.2V51.6H50.5v12.8c1.8-0.2,4.8-0.5,5.2-0.6c0.2-0.1,0.5-0.2,0.8-0.3c0.8-0.3,1.6-0.6,2.5-0.6
			c0.7,0,1.3,0.2,1.8,0.5c0,0,0,0,0.1,0H61l0,0c0.1,0.1,0.2,0.1,0.3,0.2c0,0,0.1,0.1,0.2,0.1c0.1,0.1,0.2,0.2,0.3,0.3
			c1.1-0.2,2.4-0.5,3.5-0.7c0.7-0.1,1.4-0.3,2-0.4c0.5-0.1,1-0.1,1.5-0.1c0.8,0,1.6,0.1,2.3,0.3c1,0.3,2.4,0.7,3.3,1.5
			c0.9,0.8,1,1.9,1.2,2.8c0,0.2,0.1,0.4,0.1,0.6c0.1,0.2,0.3,0.5,0.5,0.8c0.1,0.2,0.2,0.3,0.3,0.5c0.6-0.2,1.4-0.5,2.1-0.7
			c0.9-0.3,1.7-0.6,1.9-0.7c1.3-0.5,2.8-0.7,4.6-0.7c0.2,0,0.3,0,0.5,0c2.2,0,4.3,1.6,4.9,3.6l0,0c0,0.1,0.1,0.1,0.1,0.2
			c0.1,0.2,0.3,0.6,0.3,1v0.1v0.1c0.1,0,0.1,0.1,0.2,0.2c1.7,0.1,5.5,0.8,6.7,1.3L97.7,73.2L97.7,73.2z"/>
		<path d="M89.4,71.4c-0.5-1.6-2.2-2.8-3.8-2.8c-1.5,0-3.2,0.1-4.6,0.7c-0.7,0.2-1.3,0.5-1.9,0.8c0.1,0.1,0.2,0.2,0.5,0.2
			c0.5,0.1,0.8-0.1,1.2-0.3c0.8-0.3,1.7-0.2,2.5-0.3c0.3,0,1.1,0,1.4,0.2c0.2,0.2,0.2,0.4,0.3,0.6c0.1,0.2,0.4,0.2,0.5,0.3
			c0.2,0.2,0.2,0.7,0.4,1.1c0.2,0.4,0.4,0.8,0.5,1.2c0.1,0.8-0.4,1.4-0.1,2.2c0.3,0.9,0.6,1,0.2,1.9c-0.3,0.6-0.6,1.2-1.2,1.6v0.4
			c0.2,0,0.5,0,0.7,0c1,0,1.6-0.7,2.4-1.2c0.4-0.2,0.9-0.6,1.2-0.9c0.2-0.2,0.2-0.4,0.2-0.5v-0.1l0,0c0-0.1,0-0.2,0-0.4
			c0,0,0,0,0-0.1c0,0,0,0,0-0.1v-0.1c0-0.2,0.1-0.3,0.2-0.4l0.1-0.1c0.1-0.2,0.3-0.5,0.3-0.7v-0.1c0-0.1,0-0.1,0-0.2
			c0-0.2,0-0.4-0.2-0.5c-0.2-0.2-0.4-0.1-0.5-0.4c0-0.5,0.1-0.8,0.1-0.9C89.8,72,89.5,71.8,89.4,71.4L89.4,71.4z"/>
		<path d="M80.9,84.9c1.3,0.3,3.1,0.4,4.1,0.1c0.3-0.1,0.6-0.1,0.8-0.2c0.1,0,0.3,0,0.4,0c0.8,0.1,1.5,0.5,4,0.7
			c0.5-0.1,1-0.2,1.6-0.1c0.5,0.1,1,0.1,1.4-0.2c0.3-0.2,0.1-0.3,0.2-0.4c0,0,0,0,0-0.1c0,0,0,0,0.1-0.1c0,0,0.1,0,0.1-0.1
			c0.2-0.1,0.7-0.1,0.8-0.2l0,0l0,0l0.1-0.1v-0.1c0-0.1,0-0.2-0.1-0.3l-0.1-0.1c-0.1-0.1-0.1-0.1-0.2-0.2L94,83.4
			c-0.1,0-0.1-0.1-0.2-0.1c-0.1,0-0.1-0.1-0.2-0.1s-0.1-0.1-0.1-0.1c-0.4-0.3-1-0.4-1.6-0.6l0,0c-0.5-0.1-1-0.2-1.4-0.4
			c-0.8-0.4-1.5-0.9-2.4-1.1c-1.4-0.3-2.2,0.2-3.5,0.3c-0.2,0-0.4,0.1-0.6,0.1c-0.1,0-0.2,0-0.3,0.1c-0.3,0.1-0.7,0.1-1.1,0.2
			c-0.1,0-0.3,0-0.4,0.1h-0.1v0.1V82c-0.1,0.7-0.5,1.4-0.8,2.1C81.2,84.3,81,84.6,80.9,84.9L80.9,84.9L80.9,84.9z"/>
		<path d="M96.3,74.7c-1.2-0.5-2.8-0.8-4.4-0.8c-0.5,0.7-0.6,1.1-0.7,2.1c-0.1,0.9-0.7,1.5-1.3,2.1c-0.8,0.6-1.7,0.8-2.6,1.2
			c-0.8,0.3-4.3,0.1-5.4,0.2l0,0l0,0h-0.1l0,0l0,0l0,0c-0.1,0-0.3,0.1-0.4,0.1s-0.1,0-0.2,0c-0.1,0-0.1,0-0.2,0l0,0h-0.1l0,0h-0.1
			h-0.1c-0.1,0-0.2,0-0.3,0l0,0l0,0v0.1l0,0c0,0,0.1,0,0.1,0.1c0.3,0.1,0.6,0.1,0.8,0.2c0.1,0,0.2,0.1,0.3,0.1
			c0.2,0.1,0.4,0.3,0.6,0.7h0.2c0.1,0,0.2,0,0.4-0.1c0.4-0.1,0.7-0.1,1-0.2c0.1,0,0.3,0,0.3-0.1c0.2,0,0.4-0.1,0.7-0.1
			c0.4,0,0.8-0.1,1.2-0.2c0.5-0.1,1-0.2,1.6-0.2c0.3,0,0.7,0,1.1,0.1c0.7,0.2,1.4,0.5,1.9,0.8c0.2,0.1,0.4,0.2,0.7,0.3
			c0.3,0.1,0.7,0.2,1.1,0.3l0,0h0.1c0.6,0.2,1.3,0.3,1.9,0.7l0.2,0.1l0.1,0.1c0.1,0.1,0.2,0.1,0.2,0.2c0,0,0.1,0.1,0.2,0.1
			c0.1,0.1,0.2,0.2,0.2,0.2c0.1,0.1,0.2,0.2,0.2,0.3c0.2,0.3,0.3,0.6,0.3,0.8c0,0.1,0,0.3-0.1,0.4c0,0.1-0.1,0.2-0.2,0.3
			c0,0.1-0.1,0.1-0.1,0.2c-0.3,0.3-0.6,0.4-0.9,0.5c-0.1,0.2-0.3,0.4-0.6,0.6c-0.4,0.2-0.9,0.3-1.4,0.3c-0.2,0-0.4,0-0.6-0.1h-0.2
			c-0.4,0-0.8,0.1-1.1,0.1h-0.1h-0.1c-1.6-0.2-2.5-0.4-3.1-0.5c-0.3-0.1-0.6-0.1-0.8-0.2h-0.1h-0.1c-0.2,0-0.4,0.1-0.6,0.1
			c-0.5,0.1-1.1,0.2-1.8,0.2c-0.9,0-1.9-0.1-2.8-0.3l0,0c0,0.2-0.1,0.4-0.1,0.6c-0.1,0.8-0.2,1.6-0.5,2.4l-0.4,1.2L79,88.8
			c-0.6-0.4-1.4-0.5-2.2-0.6c-0.5-0.1-1.1-0.1-1.6-0.3l-0.7-0.2l-8.8-3.9l8.3,3.4c0-0.8,0.2-1.6,0.5-2.3c0.2-0.6,0.5-1.1,0.8-1.7
			c0.1-0.2,0.2-0.3,0.3-0.5c0.5-0.8,1.1-1.8,1.2-2.7v-0.3c-0.9-0.4-1.8-1-2.8-1.4l0,0c-0.3-0.2-0.7-0.3-1.1-0.5
			c-0.1,0-0.2-0.1-0.3-0.1c-1.4-0.5-3.6-0.9-3.1-2.6c0.3-1.1,1.1-2.4,1.8-3.6c-0.3,1-0.5,2-0.5,3c0,0.8,0.4,1.2,1.1,1.4l0,0
			c-0.1-0.3-0.1-0.7-0.1-1c0-0.1,0.1-0.2,0.1-0.4c0.1-0.4,0.4-0.7,0.8-0.9c0.5-0.3,1.1-0.6,1.5-0.8l0,0l0,0c0.4-0.6,1.1-1,1.8-1.3
			c0.2-1.2-1.1-2.2-1.3-3.2c-0.2-0.9-0.2-2.1-1-2.8c-0.7-0.6-2-1-2.9-1.3c-1-0.3-2.2-0.3-3.2-0.2c-1.8,0.3-3.7,0.6-5.4,1
			c0,0.1,0,0.1,0,0.2c0.2,1.5-1,3.3-2,4.8c-0.3,0.4-0.5,0.8-0.7,1.1c-0.1,0.2-0.2,0.5-0.3,0.7c-0.2,0.4-0.3,0.8-0.6,1.4
			c-0.2,0.4-0.3,0.9-0.5,1.3c0,0-0.4,1.1-0.5,1.7c-0.2,0.6-0.4,1.1-0.5,1.6c-1,2.6-1.5,5-1.4,7.2l0,0c0,0,0,0,0,0.1l0,0
			c0,0.9,0.2,1.8,0.4,2.6c0.2,0.6,0.4,1.1,0.6,1.6v0.1c0.2,0.4,0.3,0.8,0.3,1.2v0.1v0.2l-0.2,1.6c4.3,4.6,10.4,7.5,17.2,7.5
			s14.2-4.1,18.6-9.1c1.4-1.8,2.5-3.7,3.3-5.8c1.1-2.7,1.6-5.6,1.6-8.6c0-0.3,0-0.6,0-0.9C97.3,75.1,96.8,74.9,96.3,74.7L96.3,74.7z
			"/>
		<path d="M76.1,83.7C75.4,85,75,86.1,75,87.5c1.4,0.4,3,0.2,4.2,1.1c0.4-1.1,0.4-2.4,0.7-3.6c0,0,0,0,0-0.1c0,0,0,0,0-0.1
			s0-0.1,0.1-0.2c0.3-0.9,1.1-2,1.2-2.9c0-0.1,0-0.2,0-0.2v-0.1c0-0.3-0.1-0.5-0.3-0.7l-0.1-0.1c-0.2-0.1-0.4-0.1-0.7-0.2l0,0
			c-0.1,0-0.2,0-0.4-0.1c-0.7-0.2-1.3-0.3-1.9-0.5C77.6,81.3,76.7,82.6,76.1,83.7L76.1,83.7z M78,86.6c0,0.4-0.3,0.7-0.7,0.7
			c-0.4,0-0.7-0.3-0.7-0.7c0-0.4,0.3-0.7,0.7-0.7C77.7,85.9,78,86.2,78,86.6z"/>
		<path d="M56,89.6c-0.3-0.6-0.5-1.2-0.7-1.8c-0.3-0.9-0.4-1.9-0.4-2.9v-0.1c-0.1-2.5,0.5-5.1,1.5-7.5c0.2-0.5,0.4-1,0.5-1.5
			c0.1-0.5,0.3-1,0.5-1.5s0.3-1,0.5-1.5c0.2-0.5,0.4-1,0.6-1.5c0.1-0.3,0.2-0.5,0.4-0.8c0.5-1.1,2.7-3.6,2.5-5.3
			c0-0.3-0.2-0.6-0.4-0.8l0,0c-0.1-0.1-0.2-0.1-0.3-0.2c0,0,0,0-0.1,0c-1.4-0.8-2.8,0-4.3,0.5c-0.9,0.2-4.8,0.6-5.6,0.7v11
			c0,3,0.8,5.9,1.9,8.5c0.8,2.1,2,4.1,3.3,5.8c0.2,0.2,0.3,0.4,0.5,0.6c0-0.2,0-0.4,0-0.6c0,0,0,0,0-0.1C56.2,90.4,56.1,90,56,89.6
			L56,89.6z"/>
		<path d="M97.7,24c0-1.8-0.2-3.6-0.6-5.4C94.6,7.7,85.2,0,74.2,0s-20.6,7.7-23,18.7c-0.4,1.8-0.6,3.6-0.6,5.4v24.3h47.2L97.7,24
			C97.7,24.1,97.7,24.1,97.7,24z M92.2,20C90,10.3,81.8,3.3,72.2,2.8c0.4,0,0.8,0,1.1,0c10.2,0,19,7.1,21.3,17.2
			C94.8,21.7,92.6,21.7,92.2,20L92.2,20z"/>
		<path d="M0,75.7c0,1.8,0.2,3.6,0.6,5.4c2.5,11,11.9,18.7,23,18.7s20.6-7.7,23-18.7c0.4-1.8,0.6-3.6,0.6-5.4V51.6H0V75.7L0,75.7z
			 M5.5,79.7c2.2,9.8,10.4,16.7,20.1,17.2c-0.4,0-0.8,0-1.1,0c-10.2,0-19-7.1-21.3-17.2C2.9,78.1,5.1,78.1,5.5,79.7L5.5,79.7z"/>
	</g>
	<g>
		<g class="st0">
			<path d="M128.1,50c-1,0.1-1.6,0.3-1.8,0.5c-0.5,0.5-0.7,1.4-0.7,2.9V62c0,0.6-0.7,1.3-2,2.1c-1.4,0.8-2.9,1.3-4.4,1.3
				c-3.9,0-6.8-1.6-8.8-4.7c-1.7-2.7-2.6-6.4-2.6-11c0-3.9,1-7.3,2.9-10.2c2-3.1,4.6-4.7,7.7-4.7c1.2,0,2.4,0.3,3.6,0.9
				c1.1,0.5,1.8,0.8,2,0.8c0.6,0,1.1-0.6,1.3-1.7h0.8l0.3,9h-0.8c-0.7-2.4-1.3-4.1-2-5.2c-1.2-1.8-2.8-2.7-4.7-2.7c-2,0-3.8,1-5.4,3
				c-2.1,2.7-3.1,6.5-3.1,11.6c0,4.1,0.9,7.5,2.7,10.1c1.7,2.4,3.9,3.7,6.5,3.7c1.1,0,2.1-0.3,3-0.9c0.8-0.6,1.2-1.4,1.2-2.2v-7.3
				c0-1.7-0.2-2.8-0.7-3.3c-0.3-0.3-1.1-0.5-2.4-0.6v-0.7h7.7V50z"/>
			<path d="M142.9,64.9h-9.1v-0.7c1.2-0.1,2.1-0.5,2.7-1c0.5-0.5,0.8-1.4,0.8-2.7V40.3c0-2.1-0.8-3.1-2.4-3.1c-0.2,0-0.6,0-1.1,0.1
				v-0.8c1.2-0.3,3.2-0.9,5.7-2v26.1c0,1.3,0.3,2.2,0.8,2.7c0.5,0.5,1.4,0.7,2.7,0.8V64.9z"/>
			<path d="M167.2,54.7c0,2.9-0.7,5.3-2,7.3c-1.6,2.2-3.7,3.2-6.5,3.2c-2.4,0-4.4-1-6.1-3c-1.6-2-2.4-4.5-2.4-7.5
				c0-2.8,0.7-5.3,2.2-7.2c1.6-2,3.6-3.1,6.1-3.1c2.6,0,4.6,0.9,6.3,2.8C166.5,49,167.2,51.6,167.2,54.7z M164.7,56
				c0-3-0.6-5.4-1.8-7.4c-1.2-1.9-2.7-2.9-4.6-2.9c-1.5,0-2.7,0.5-3.7,1.6c-1.1,1.2-1.7,3-1.8,5.2c-0.1,2.9,0.4,5.4,1.4,7.5
				c1.2,2.6,2.9,3.9,5.1,3.9c1.4,0,2.5-0.5,3.4-1.4C164.1,61.1,164.7,58.9,164.7,56z"/>
			<path d="M188,54.3c0,2.6-0.7,4.9-2,7c-1.7,2.6-4.2,3.9-7.3,3.9c-1.1,0-2.3-0.2-3.5-0.7c-1.4-0.5-2.1-1.1-2.1-1.9V39.9
				c0-1.8-0.8-2.7-2.4-2.7c-0.2,0-0.4,0-0.6,0v-0.8c1.1-0.3,2.8-0.9,5.1-1.8v14.6l0.3-0.6c0.4-0.8,1.1-1.6,1.9-2.4
				c1.2-1.1,2.5-1.6,3.7-1.6c2.2,0,4,1,5.2,3.1C187.4,49.5,188,51.7,188,54.3z M185.4,55.7c0-5.8-1.9-8.8-5.6-8.8
				c-0.9,0-1.8,0.5-2.8,1.4c-1.1,1-1.7,2.2-1.7,3.4v9.5c0,0.7,0.6,1.4,1.8,2c1,0.5,1.8,0.7,2.6,0.7c2.1,0,3.7-1,4.7-3
				C185,59.6,185.4,57.8,185.4,55.7z"/>
			<path d="M207.6,58.1c-0.5,1.6-1.2,3-2.3,4.2c-1.6,1.9-3.5,2.9-5.8,2.9c-2.2,0-4-0.9-5.3-2.7c-1.3-1.7-2-4.1-2-7.2
				c0-3.6,0.9-6.5,2.8-8.5c1.5-1.6,3.2-2.4,5.1-2.4c1.8,0,3.3,0.6,4.4,1.7c1.3,1.3,2.1,3.3,2.3,5.9h-12.6c0,7.2,2,10.7,5.9,10.7
				c2.9,0,5.2-1.6,6.9-4.8L207.6,58.1z M204.1,50.9c-0.4-3.4-2-5.1-4.7-5.1c-2.4,0-4,1.7-5,5.1H204.1z"/>
			<path d="M230.1,42.7h-0.8c-0.4-2.4-1-4-1.8-4.7c-0.7-0.6-2.1-0.9-4.1-0.9h-2.1v22.6c0,1.6,0.3,2.7,0.8,3.3c0.6,0.6,1.6,1,3,1.1
				v0.8h-9.9v-0.8c1.6-0.1,2.6-0.6,3.1-1.3c0.4-0.6,0.6-1.8,0.6-3.7V37.1h-2.2c-2,0-3.4,0.3-4.1,1c-0.8,0.7-1.4,2.2-1.8,4.7h-0.8
				l0.4-7.1h19.5L230.1,42.7z"/>
			<path d="M247.7,46.8c0,0.9-0.4,1.4-1.2,1.4c-0.5,0-1-0.2-1.6-0.5c-0.6-0.3-1-0.5-1.4-0.5c-0.5,0.1-1.2,0.7-2,1.9
				c-0.8,1.2-1.2,2.2-1.2,2.9v8.5c0,1.5,0.4,2.5,1.1,3.1c0.5,0.4,1.4,0.6,2.6,0.7v0.7h-9v-0.7c1.2-0.2,2-0.5,2.4-0.9
				c0.5-0.5,0.8-1.4,0.8-2.6V50.5c0-2-0.7-3.1-2-3.1c-0.5,0-0.9,0-1.2,0.1v-0.7c1.2-0.4,2.9-1.2,5.3-2.3v5.1l0.4-0.7
				c1.2-1.7,2-2.8,2.6-3.4c0.8-0.7,1.5-1.1,2.3-1.1C247.1,44.6,247.7,45.3,247.7,46.8z"/>
			<path d="M269.3,54.7c0,2.9-0.7,5.3-2,7.3c-1.6,2.2-3.7,3.2-6.5,3.2c-2.4,0-4.4-1-6.1-3c-1.6-2-2.4-4.5-2.4-7.5
				c0-2.8,0.7-5.3,2.2-7.2c1.6-2,3.6-3.1,6.1-3.1c2.6,0,4.6,0.9,6.3,2.8C268.5,49,269.3,51.6,269.3,54.7z M266.8,56
				c0-3-0.6-5.4-1.8-7.4c-1.2-1.9-2.7-2.9-4.6-2.9c-1.5,0-2.7,0.5-3.7,1.6c-1.1,1.2-1.7,3-1.8,5.2c-0.1,2.9,0.4,5.4,1.4,7.5
				c1.2,2.6,2.9,3.9,5.1,3.9c1.4,0,2.5-0.5,3.4-1.4C266.2,61.1,266.8,58.9,266.8,56z"/>
			<path d="M286.5,62.1c-0.4,1-1,1.7-1.8,2.3c-0.8,0.6-1.6,0.9-2.5,0.9c-1.1,0-1.8-0.4-2.3-1.1c-0.5-0.9-0.8-2.3-0.8-4.3V46h-2.8
				c0-0.5,0-0.8,0-0.8c0.3-0.1,0.9-0.5,1.8-1.2c1-1,1.9-2.6,2.6-4.8h0.5v5.6h4.5V46h-4.5v12.8c0,1.7,0.1,2.8,0.3,3.3
				c0.3,0.7,1,1.1,2,1.1c1,0,1.8-0.5,2.4-1.4L286.5,62.1z"/>
			<path d="M306.9,62.1c-0.4,1-1,1.7-1.8,2.3c-0.8,0.6-1.6,0.9-2.5,0.9c-1.1,0-1.8-0.4-2.3-1.1c-0.5-0.9-0.8-2.3-0.8-4.3V46h-2.8
				c0-0.5,0-0.8,0-0.8c0.3-0.1,0.9-0.5,1.8-1.2c1-1,1.9-2.6,2.6-4.8h0.5v5.6h4.5V46h-4.5v12.8c0,1.7,0.1,2.8,0.3,3.3
				c0.3,0.7,1,1.1,2,1.1c1,0,1.8-0.5,2.4-1.4L306.9,62.1z"/>
			<path d="M330.1,58.1c-0.5,1.6-1.2,3-2.3,4.2c-1.6,1.9-3.5,2.9-5.8,2.9c-2.2,0-4-0.9-5.3-2.7c-1.3-1.7-2-4.1-2-7.2
				c0-3.6,0.9-6.5,2.8-8.5c1.5-1.6,3.2-2.4,5.1-2.4c1.8,0,3.3,0.6,4.4,1.7c1.3,1.3,2.1,3.3,2.3,5.9h-12.6c0,7.2,2,10.7,5.9,10.7
				c2.9,0,5.2-1.6,6.9-4.8L330.1,58.1z M326.6,50.9c-0.4-3.4-2-5.1-4.7-5.1c-2.4,0-4,1.7-5,5.1H326.6z"/>
			<path d="M349.8,46.8c0,0.9-0.4,1.4-1.2,1.4c-0.5,0-1-0.2-1.6-0.5c-0.6-0.3-1-0.5-1.4-0.5c-0.5,0.1-1.2,0.7-2,1.9
				c-0.8,1.2-1.2,2.2-1.2,2.9v8.5c0,1.5,0.4,2.5,1.1,3.1c0.5,0.4,1.4,0.6,2.6,0.7v0.7h-9v-0.7c1.2-0.2,2-0.5,2.4-0.9
				c0.5-0.5,0.8-1.4,0.8-2.6V50.5c0-2-0.7-3.1-2-3.1c-0.5,0-0.9,0-1.2,0.1v-0.7c1.2-0.4,2.9-1.2,5.3-2.3v5.1l0.4-0.7
				c1.2-1.7,2-2.8,2.6-3.4c0.8-0.7,1.5-1.1,2.3-1.1C349.2,44.6,349.8,45.3,349.8,46.8z"/>
			<path d="M368.7,59.6c0,1.8-0.6,3.2-1.8,4.2c-1.1,0.9-2.3,1.4-3.7,1.4c-0.7,0-1.5-0.2-2.6-0.5c-1-0.3-1.7-0.5-2-0.5
				c-0.3,0-0.5,0.3-0.6,0.8h-0.5v-6.6h0.6c0.4,1.9,0.8,3.2,1.2,3.8c0.7,1.3,2,2,3.7,2c2.5,0,3.8-1.1,3.8-3.3c0-1.3-0.8-2.4-2.3-3.5
				l-2.3-1.6c-1.9-1.3-3-2.1-3.3-2.4c-1-1-1.5-2.2-1.5-3.6c0-1.4,0.4-2.6,1.2-3.6c1-1.2,2.4-1.8,4.1-1.8c0.7,0,1.4,0.2,2.1,0.5
				c0.7,0.3,1.2,0.5,1.3,0.5c0.3,0,0.4-0.2,0.5-0.6h0.6l0.3,5.7h-0.7c-0.4-2.2-0.9-3.6-1.6-4.3c-0.6-0.6-1.4-0.9-2.5-0.9
				c-1.1,0-2,0.4-2.7,1.1c-0.6,0.6-0.9,1.4-0.9,2.2c0,1.3,0.7,2.4,2,3.3l4.3,2.9c1.2,0.8,2,1.4,2.4,2
				C368.4,57.5,368.7,58.5,368.7,59.6z"/>
		</g>
	</g>
</g>
</svg>
